HIERARCHY
ROOT root
{
	OFFSET	0	13.1	24.9
	CHANNELS 6  Xposition Yposition Zposition Xrotation Yrotation Zrotation
	JOINT spine_1
	{
		OFFSET	0	9.99999	0
		CHANNELS 3  Xrotation Yrotation Zrotation
		JOINT spine_2
		{
			OFFSET	0	112	-10
			CHANNELS 3  Xrotation Yrotation Zrotation
			JOINT spine_3
			{
				OFFSET	0	206.5	19.3
				CHANNELS 3  Xrotation Yrotation Zrotation
				JOINT spine_4
				{
					OFFSET	0	110.4	14.6
					CHANNELS 3  Xrotation Yrotation Zrotation
					JOINT neck_1
					{
						OFFSET	0	71.8	-50.3
						CHANNELS 3  Xrotation Yrotation Zrotation
						JOINT neck_2
						{
							OFFSET	0	86.2	-25.8
							CHANNELS 3  Xrotation Yrotation Zrotation
							JOINT head_ee
							{
								OFFSET	0	179.8	-8.7
								CHANNELS 3  Xrotation Yrotation Zrotation
								End Site
								{
									OFFSET	1	0	0
								}
							}
						}
					}
					JOINT left_clavicle
					{
						OFFSET	-43.2	22.4	-70.8
						CHANNELS 3  Xrotation Yrotation Zrotation
						JOINT left_shoulder
						{
							OFFSET	-93.9	-5.79999	48.7
							CHANNELS 3  Xrotation Yrotation Zrotation
							JOINT left_elbow
							{
								OFFSET	-291.4	-30.8	15.2
								CHANNELS 3  Xrotation Yrotation Zrotation
								JOINT left_lowarm_twist
								{
									OFFSET	-110.7	-3.89999	13.6
									CHANNELS 3  Xrotation Yrotation Zrotation
									JOINT left_hand
									{
										OFFSET	-110.7	-3.89999	13.6
										CHANNELS 3  Xrotation Yrotation Zrotation
										JOINT left_ee
										{
											OFFSET	-80.8	-5.10001	12.1
											CHANNELS 3  Xrotation Yrotation Zrotation
											End Site
											{
												OFFSET	1	0	0
											}
										}
									}
								}
							}
						}
					}
					JOINT right_clavicle
					{
						OFFSET	43.2	22.4	-70.8
						CHANNELS 3  Xrotation Yrotation Zrotation
						JOINT right_shoulder
						{
							OFFSET	93.9	-5.79999	48.7
							CHANNELS 3  Xrotation Yrotation Zrotation
							JOINT right_elbow
							{
								OFFSET	291.4	-30.8	15.2
								CHANNELS 3  Xrotation Yrotation Zrotation
								JOINT right_lowarm_twist
								{
									OFFSET	110.7	-3.89999	13.6
									CHANNELS 3  Xrotation Yrotation Zrotation
									JOINT right_hand
									{
										OFFSET	110.7	-3.89999	13.6
										CHANNELS 3  Xrotation Yrotation Zrotation
										JOINT right_ee
										{
											OFFSET	80.8	-5.10001	12.1
											CHANNELS 3  Xrotation Yrotation Zrotation
											End Site
											{
												OFFSET	1	0	0
											}
										}
									}
								}
							}
						}
					}
				}
			}
		}
	}
	JOINT left_hip
	{
		OFFSET	-82.8	-127.5	0.300001
		CHANNELS 3  Xrotation Yrotation Zrotation
		JOINT left_knee
		{
			OFFSET	-28.2	-396.7	2.2
			CHANNELS 3  Xrotation Yrotation Zrotation
			JOINT left_ankle
			{
				OFFSET	-11.7	-411.3	35.4
				CHANNELS 3  Xrotation Yrotation Zrotation
				JOINT left_toes
				{
					OFFSET	0	-60	-88.6
					CHANNELS 3  Xrotation Yrotation Zrotation
					JOINT left_foot_ee
					{
						OFFSET	-22.5	-16.5	-42.2
						CHANNELS 3  Xrotation Yrotation Zrotation
						End Site
						{
							OFFSET	1	0	0
						}
					}
				}
			}
		}
	}
	JOINT right_hip
	{
		OFFSET	82.8	-127.5	0.300001
		CHANNELS 3  Xrotation Yrotation Zrotation
		JOINT right_knee
		{
			OFFSET	28.2	-396.7	2.2
			CHANNELS 3  Xrotation Yrotation Zrotation
			JOINT right_ankle
			{
				OFFSET	11.7	-411.3	35.4
				CHANNELS 3  Xrotation Yrotation Zrotation
				JOINT right_toes
				{
					OFFSET	0	-60	-88.6
					CHANNELS 3  Xrotation Yrotation Zrotation
					JOINT right_foot_ee
					{
						OFFSET	22.5	-16.5	-42.2
						CHANNELS 3  Xrotation Yrotation Zrotation
						End Site
						{
							OFFSET	1	0	0
						}
					}
				}
			}
		}
	}
}
MOTION
Frames: 6
Frame Time: 0.02
1064.85 753.012 -672.454 59.1481 -81.8001 63.6773 -2.66228 -0.419003 -2.63069 -2.65846 -0.250816 -2.652 -2.64204 0.434003 -2.62826 -2.65168 0.0136241 -2.66379 -6.01024 1.08105 10.7402 -5.66279 -5.9468 11.0752 -0.0 0.0 -0.0 11.2066 -8.14426 22.4898 16.79 -22.4169 62.2636 0.82088 -22.1285 0.160521 -25.1944 -1.53114 2.80788 -0.749162 8.25847 -1.41205 -0.0 0.0 -0.0 3.38157 14.6448 -5.43441 -15.1626 7.62845 -62.8793 1.4986 36.5864 -0.495441 -2.49517 0.0945713 -0.304554 -1.21202 -7.75014 4.63765 0.0 0.0 0.0 -0.416246 -0.679523 2.51282 -8.58477 0.257124 1.29118 17.5876 10.2311 -2.43041 -27.4579 0.0 0.0 -0.0 0.0 -0.0 10.2457 10.55 -2.03159 -49.8036 1.20511 -7.31153 34.5626 -1.7218 4.3658 -40.1733 0.0 0.0 0.0 0.0 0.0 
1078.69 751.982 -673.874 67.3172 -82.7563 72.2203 -2.49826 -0.363378 -2.93855 -2.49347 -0.175738 -2.9557 -2.47887 0.57598 -2.9044 -2.49063 0.110265 -2.95886 -6.47558 2.0597 10.942 -6.12592 -4.20752 11.4188 -0.0 0.0 -0.0 11.1918 -9.12231 22.4637 18.1932 -22.8251 62.0676 0.87841 -23.5154 0.182836 -24.2313 -1.45065 2.71432 -0.682396 6.37141 -1.79567 -0.0 0.0 -0.0 3.11942 14.1397 -4.9239 -17.7051 6.62576 -64.1288 1.40296 34.7967 -0.439635 -2.92008 0.111995 -0.356001 -1.29785 -8.48657 4.8618 0.0 0.0 0.0 -1.68536 -0.490608 2.06556 -7.36266 0.232383 1.10528 18.1335 10.52 -2.50069 -27.4705 0.0 0.0 -0.0 0.0 -0.0 12.3304 7.22968 -2.40864 -49.7208 1.19794 -7.30097 34.507 -1.31728 4.36257 -39.9907 0.0 0.0 0.0 0.0 0.0 
1094.93 750.974 -674.871 83.8273 -82.9975 90.0967 -2.1992 -0.296701 -3.12052 -2.19378 -0.0976325 -3.13306 -2.18285 0.680684 -3.05985 -2.19586 0.189143 -3.12887 -5.60979 3.20854 10.9509 -5.26626 -2.25542 11.691 -0.0 0.0 -0.0 11.1343 -9.35558 22.3364 18.9644 -22.8988 61.2402 1.01288 -26.6446 0.239857 -23.5041 -1.39092 2.64279 -0.667171 4.35651 -2.56846 -0.0 0.0 -0.0 3.16331 13.7262 -5.05291 -19.6445 5.71216 -64.968 1.25547 31.877 -0.358555 -3.15361 0.121734 -0.384221 -1.34719 -9.18315 4.86408 0.0 0.0 0.0 -3.56445 -1.11944 0.390325 -6.66839 0.216564 0.999912 20.0422 10.5916 -2.74095 -27.1648 0.0 0.0 -0.0 0.0 -0.0 13.914 2.32267 -1.91727 -49.7181 1.1977 -7.30063 34.4746 -0.783897 4.36264 -40.1548 0.0 0.0 0.0 0.0 0.0 
1113.81 751.442 -673.741 83.0759 -82.8197 89.8632 -2.22875 -0.344111 -3.37696 -2.22241 -0.128655 -3.39199 -2.20813 0.716241 -3.31809 -2.22345 0.183537 -3.38947 -5.27049 2.53931 9.73614 -4.99572 -2.63211 10.3577 -0.0 0.0 -0.0 11.1095 -9.59123 22.2813 20.1456 -23.1301 60.7931 1.10265 -28.6434 0.281514 -22.9219 -1.34377 2.58499 -0.663542 1.84788 -3.63277 -0.0 0.0 -0.0 2.57403 11.5955 -4.00438 -23.1371 5.23071 -66.2558 1.03024 27.0369 -0.247696 -4.14698 0.164446 -0.503816 -1.48803 -8.86368 5.92168 0.0 0.0 0.0 -5.31624 -1.1861 -0.454105 -6.32127 0.208175 0.947302 20.8572 10.3711 -2.84116 -27.2127 0.0 0.0 -0.0 0.0 -0.0 16.6731 0.817965 -1.70105 -47.2409 0.990454 -6.98052 31.8195 -0.680349 4.09655 -40.2717 0.0 0.0 0.0 0.0 0.0 
1132.61 748.323 -674.708 96.3919 -82.9321 104.003 -1.9773 -0.386192 -3.49768 -1.97051 -0.162983 -3.51514 -1.95371 0.69819 -3.44903 -1.97028 0.14507 -3.51592 -4.37823 2.36544 8.8664 -4.14909 -2.43029 9.49097 -0.0 0.0 -0.0 11.1011 -9.51407 22.2628 20.14 -23.2378 59.6724 1.35123 -33.7951 0.41049 -22.4982 -1.30982 2.54263 -0.748762 -1.4294 -5.62963 -0.0 0.0 -0.0 2.18568 11.0493 -3.24473 -24.2538 4.30086 -66.7749 0.851692 22.8748 -0.172313 -2.95296 0.11336 -0.359977 -1.55814 -12.2017 4.82372 0.0 0.0 0.0 -7.43658 -0.572305 -1.19718 -5.90117 0.197596 0.883701 26.2875 10.2714 -3.48589 -27.6241 0.0 0.0 -0.0 0.0 -0.0 18.0062 -4.33493 -2.22371 -38.4048 0.368414 -5.77367 23.5101 -1.6177 3.16907 -40.1498 0.0 0.0 0.0 0.0 0.0 
1149.78 747.976 -672.792 107.225 -83.524 115.068 -1.75987 -0.40862 -3.62629 -1.75257 -0.177199 -3.64491 -1.73438 0.702336 -3.58107 -1.75225 0.128352 -3.64695 -5.05935 2.89845 10.0007 -4.77155 -2.2083 10.7015 -0.0 0.0 -0.0 10.8729 -9.43959 21.7573 20.328 -23.2829 58.6023 1.58382 -38.1142 0.54715 -22.4253 -1.30401 2.53531 -0.81775 -3.86409 -7.15742 -0.0 0.0 -0.0 1.89321 10.1179 -2.7254 -25.1697 3.59198 -66.9866 0.724658 19.7468 -0.126128 -2.00418 0.0749134 -0.244951 -1.50645 -14.4806 3.44136 0.0 0.0 0.0 -8.50979 1.14427 -1.5868 -4.32429 0.153734 0.645685 30.0512 10.4889 -3.90475 -28.2489 0.0 0.0 -0.0 0.0 -0.0 18.5066 -7.75187 -1.88594 -32.1925 0.0461388 -4.87579 18.6271 -1.10662 2.57376 -39.957 0.0 0.0 0.0 0.0 0.0 
